<mxfile host="app.diagrams.net" modified="2022-10-19T23:26:43.265Z" agent="5.0 (Macintosh; Intel Mac OS X 10_15_7) AppleWebKit/605.1.15 (KHTML, like Gecko) Version/15.6.1 Safari/605.1.15" etag="Zm4Kt3zfEA3bEdW5nBm1" version="20.4.2" type="github">
  <diagram id="kgX3UQG_FWsGC-QnzyJM" name="Page-1">
    <mxGraphModel dx="946" dy="645" grid="1" gridSize="10" guides="1" tooltips="1" connect="1" arrows="1" fold="1" page="1" pageScale="1" pageWidth="1100" pageHeight="850" math="0" shadow="0">
      <root>
        <mxCell id="0" />
        <mxCell id="1" parent="0" />
        <mxCell id="4zWBS9Q-G4BKUGcmbE8r-16" value="" style="ellipse;html=1;shape=startState;fillColor=#000000;strokeColor=#ff0000;" vertex="1" parent="1">
          <mxGeometry x="70" y="40" width="30" height="30" as="geometry" />
        </mxCell>
        <mxCell id="4zWBS9Q-G4BKUGcmbE8r-17" value="" style="edgeStyle=orthogonalEdgeStyle;html=1;verticalAlign=bottom;endArrow=open;endSize=8;strokeColor=#ff0000;rounded=0;" edge="1" source="4zWBS9Q-G4BKUGcmbE8r-16" parent="1">
          <mxGeometry relative="1" as="geometry">
            <mxPoint x="85" y="130" as="targetPoint" />
          </mxGeometry>
        </mxCell>
        <mxCell id="4zWBS9Q-G4BKUGcmbE8r-18" value="Waiting" style="swimlane;fontStyle=1;align=center;verticalAlign=middle;childLayout=stackLayout;horizontal=1;startSize=30;horizontalStack=0;resizeParent=0;resizeLast=1;container=0;fontColor=#000000;collapsible=0;rounded=1;arcSize=30;strokeColor=#ff0000;fillColor=#ffffc0;swimlaneFillColor=#ffffc0;dropTarget=0;" vertex="1" parent="1">
          <mxGeometry x="10" y="130" width="160" height="60" as="geometry" />
        </mxCell>
        <mxCell id="4zWBS9Q-G4BKUGcmbE8r-19" value="Do: Display welcoming screen" style="text;html=1;strokeColor=none;fillColor=none;align=center;verticalAlign=middle;spacingLeft=4;spacingRight=4;whiteSpace=wrap;overflow=hidden;rotatable=0;fontColor=#000000;" vertex="1" parent="4zWBS9Q-G4BKUGcmbE8r-18">
          <mxGeometry y="30" width="160" height="30" as="geometry" />
        </mxCell>
        <mxCell id="4zWBS9Q-G4BKUGcmbE8r-21" value="Biometrics and Card" style="swimlane;fontStyle=1;align=center;verticalAlign=middle;childLayout=stackLayout;horizontal=1;startSize=30;horizontalStack=0;resizeParent=0;resizeLast=1;container=0;fontColor=#000000;collapsible=0;rounded=1;arcSize=30;strokeColor=#ff0000;fillColor=#ffffc0;swimlaneFillColor=#ffffc0;dropTarget=0;" vertex="1" parent="1">
          <mxGeometry x="10" y="280" width="160" height="60" as="geometry" />
        </mxCell>
        <mxCell id="4zWBS9Q-G4BKUGcmbE8r-22" value="Do: Display authentication options" style="text;html=1;strokeColor=none;fillColor=none;align=center;verticalAlign=middle;spacingLeft=4;spacingRight=4;whiteSpace=wrap;overflow=hidden;rotatable=0;fontColor=#000000;" vertex="1" parent="4zWBS9Q-G4BKUGcmbE8r-21">
          <mxGeometry y="30" width="160" height="30" as="geometry" />
        </mxCell>
        <mxCell id="4zWBS9Q-G4BKUGcmbE8r-24" value="Fingerprint" style="edgeStyle=orthogonalEdgeStyle;rounded=0;orthogonalLoop=1;jettySize=auto;html=1;exitX=0.5;exitY=1;exitDx=0;exitDy=0;" edge="1" parent="1" source="4zWBS9Q-G4BKUGcmbE8r-22">
          <mxGeometry relative="1" as="geometry">
            <mxPoint x="90" y="400" as="targetPoint" />
          </mxGeometry>
        </mxCell>
        <mxCell id="4zWBS9Q-G4BKUGcmbE8r-25" value="Insert card" style="edgeStyle=orthogonalEdgeStyle;rounded=0;orthogonalLoop=1;jettySize=auto;html=1;exitX=0.5;exitY=1;exitDx=0;exitDy=0;entryX=0.5;entryY=0;entryDx=0;entryDy=0;" edge="1" parent="1" source="4zWBS9Q-G4BKUGcmbE8r-19" target="4zWBS9Q-G4BKUGcmbE8r-21">
          <mxGeometry relative="1" as="geometry" />
        </mxCell>
        <mxCell id="4zWBS9Q-G4BKUGcmbE8r-27" value="Face" style="edgeStyle=orthogonalEdgeStyle;rounded=0;orthogonalLoop=1;jettySize=auto;html=1;exitX=1;exitY=0.5;exitDx=0;exitDy=0;" edge="1" parent="1" source="4zWBS9Q-G4BKUGcmbE8r-22">
          <mxGeometry relative="1" as="geometry">
            <mxPoint x="240" y="325" as="targetPoint" />
          </mxGeometry>
        </mxCell>
        <mxCell id="4zWBS9Q-G4BKUGcmbE8r-28" value="Facial recognition" style="swimlane;fontStyle=1;align=center;verticalAlign=middle;childLayout=stackLayout;horizontal=1;startSize=30;horizontalStack=0;resizeParent=0;resizeLast=1;container=0;fontColor=#000000;collapsible=0;rounded=1;arcSize=30;strokeColor=#ff0000;fillColor=#ffffc0;swimlaneFillColor=#ffffc0;dropTarget=0;" vertex="1" parent="1">
          <mxGeometry x="240" y="280" width="160" height="60" as="geometry" />
        </mxCell>
        <mxCell id="4zWBS9Q-G4BKUGcmbE8r-29" value="Do: Authenticate face and card" style="text;html=1;strokeColor=none;fillColor=none;align=center;verticalAlign=middle;spacingLeft=4;spacingRight=4;whiteSpace=wrap;overflow=hidden;rotatable=0;fontColor=#000000;" vertex="1" parent="4zWBS9Q-G4BKUGcmbE8r-28">
          <mxGeometry y="30" width="160" height="30" as="geometry" />
        </mxCell>
        <mxCell id="4zWBS9Q-G4BKUGcmbE8r-31" value="Fingerprint recongnitionÂ " style="swimlane;fontStyle=1;align=center;verticalAlign=middle;childLayout=stackLayout;horizontal=1;startSize=30;horizontalStack=0;resizeParent=0;resizeLast=1;container=0;fontColor=#000000;collapsible=0;rounded=1;arcSize=30;strokeColor=#ff0000;fillColor=#ffffc0;swimlaneFillColor=#ffffc0;dropTarget=0;" vertex="1" parent="1">
          <mxGeometry x="10" y="400" width="160" height="60" as="geometry" />
        </mxCell>
        <mxCell id="4zWBS9Q-G4BKUGcmbE8r-32" value="Do: authenticate fingerprint and card" style="text;html=1;strokeColor=none;fillColor=none;align=center;verticalAlign=middle;spacingLeft=4;spacingRight=4;whiteSpace=wrap;overflow=hidden;rotatable=0;fontColor=#000000;" vertex="1" parent="4zWBS9Q-G4BKUGcmbE8r-31">
          <mxGeometry y="30" width="160" height="30" as="geometry" />
        </mxCell>
        <mxCell id="4zWBS9Q-G4BKUGcmbE8r-34" value="End Transaction" style="swimlane;fontStyle=1;align=center;verticalAlign=middle;childLayout=stackLayout;horizontal=1;startSize=30;horizontalStack=0;resizeParent=0;resizeLast=1;container=0;fontColor=#000000;collapsible=0;rounded=1;arcSize=30;strokeColor=#ff0000;fillColor=#ffffc0;swimlaneFillColor=#ffffc0;dropTarget=0;" vertex="1" parent="1">
          <mxGeometry x="550" y="100" width="160" height="60" as="geometry" />
        </mxCell>
        <mxCell id="4zWBS9Q-G4BKUGcmbE8r-35" value="Do: eject card and log out" style="text;html=1;strokeColor=none;fillColor=none;align=center;verticalAlign=middle;spacingLeft=4;spacingRight=4;whiteSpace=wrap;overflow=hidden;rotatable=0;fontColor=#000000;" vertex="1" parent="4zWBS9Q-G4BKUGcmbE8r-34">
          <mxGeometry y="30" width="160" height="30" as="geometry" />
        </mxCell>
        <mxCell id="4zWBS9Q-G4BKUGcmbE8r-37" value="" style="ellipse;html=1;shape=endState;fillColor=#000000;strokeColor=#ff0000;" vertex="1" parent="1">
          <mxGeometry x="990" y="130" width="30" height="30" as="geometry" />
        </mxCell>
        <mxCell id="4zWBS9Q-G4BKUGcmbE8r-40" value="Not Accepted" style="edgeStyle=orthogonalEdgeStyle;rounded=0;orthogonalLoop=1;jettySize=auto;html=1;exitX=1;exitY=0.25;exitDx=0;exitDy=0;entryX=0.338;entryY=1.067;entryDx=0;entryDy=0;entryPerimeter=0;" edge="1" parent="1" source="4zWBS9Q-G4BKUGcmbE8r-32" target="4zWBS9Q-G4BKUGcmbE8r-35">
          <mxGeometry relative="1" as="geometry">
            <mxPoint x="220" y="120" as="targetPoint" />
          </mxGeometry>
        </mxCell>
        <mxCell id="4zWBS9Q-G4BKUGcmbE8r-41" value="Not Accepted" style="edgeStyle=orthogonalEdgeStyle;rounded=0;orthogonalLoop=1;jettySize=auto;html=1;exitX=1;exitY=0.25;exitDx=0;exitDy=0;entryX=0.175;entryY=1.067;entryDx=0;entryDy=0;entryPerimeter=0;" edge="1" parent="1" source="4zWBS9Q-G4BKUGcmbE8r-29" target="4zWBS9Q-G4BKUGcmbE8r-35">
          <mxGeometry relative="1" as="geometry" />
        </mxCell>
        <mxCell id="4zWBS9Q-G4BKUGcmbE8r-42" value="Logged in" style="swimlane;fontStyle=1;align=center;verticalAlign=middle;childLayout=stackLayout;horizontal=1;startSize=30;horizontalStack=0;resizeParent=0;resizeLast=1;container=0;fontColor=#000000;collapsible=0;rounded=1;arcSize=30;strokeColor=#ff0000;fillColor=#ffffc0;swimlaneFillColor=#ffffc0;dropTarget=0;" vertex="1" parent="1">
          <mxGeometry x="250" y="450" width="160" height="60" as="geometry" />
        </mxCell>
        <mxCell id="4zWBS9Q-G4BKUGcmbE8r-43" value="Do: &amp;nbsp;Display transaction options" style="text;html=1;strokeColor=none;fillColor=none;align=center;verticalAlign=middle;spacingLeft=4;spacingRight=4;whiteSpace=wrap;overflow=hidden;rotatable=0;fontColor=#000000;" vertex="1" parent="4zWBS9Q-G4BKUGcmbE8r-42">
          <mxGeometry y="30" width="160" height="30" as="geometry" />
        </mxCell>
        <mxCell id="4zWBS9Q-G4BKUGcmbE8r-45" value="Accepted" style="edgeStyle=orthogonalEdgeStyle;rounded=0;orthogonalLoop=1;jettySize=auto;html=1;exitX=0.5;exitY=1;exitDx=0;exitDy=0;entryX=0;entryY=0.25;entryDx=0;entryDy=0;" edge="1" parent="1" source="4zWBS9Q-G4BKUGcmbE8r-32" target="4zWBS9Q-G4BKUGcmbE8r-43">
          <mxGeometry relative="1" as="geometry" />
        </mxCell>
        <mxCell id="4zWBS9Q-G4BKUGcmbE8r-46" value="Accepted" style="edgeStyle=orthogonalEdgeStyle;rounded=0;orthogonalLoop=1;jettySize=auto;html=1;exitX=0.5;exitY=1;exitDx=0;exitDy=0;entryX=0.438;entryY=0;entryDx=0;entryDy=0;entryPerimeter=0;" edge="1" parent="1" source="4zWBS9Q-G4BKUGcmbE8r-29" target="4zWBS9Q-G4BKUGcmbE8r-42">
          <mxGeometry relative="1" as="geometry" />
        </mxCell>
        <mxCell id="4zWBS9Q-G4BKUGcmbE8r-53" value="Waiting" style="swimlane;fontStyle=1;align=center;verticalAlign=middle;childLayout=stackLayout;horizontal=1;startSize=30;horizontalStack=0;resizeParent=0;resizeLast=1;container=0;fontColor=#000000;collapsible=0;rounded=1;arcSize=30;strokeColor=#ff0000;fillColor=#ffffc0;swimlaneFillColor=#ffffc0;dropTarget=0;" vertex="1" parent="1">
          <mxGeometry x="750" y="100" width="160" height="60" as="geometry" />
        </mxCell>
        <mxCell id="4zWBS9Q-G4BKUGcmbE8r-54" value="Do: Display Welcome screen" style="text;html=1;strokeColor=none;fillColor=none;align=center;verticalAlign=middle;spacingLeft=4;spacingRight=4;whiteSpace=wrap;overflow=hidden;rotatable=0;fontColor=#000000;" vertex="1" parent="4zWBS9Q-G4BKUGcmbE8r-53">
          <mxGeometry y="30" width="160" height="30" as="geometry" />
        </mxCell>
        <mxCell id="4zWBS9Q-G4BKUGcmbE8r-56" style="edgeStyle=orthogonalEdgeStyle;rounded=0;orthogonalLoop=1;jettySize=auto;html=1;exitX=1;exitY=0.25;exitDx=0;exitDy=0;entryX=0;entryY=0.25;entryDx=0;entryDy=0;" edge="1" parent="1" source="4zWBS9Q-G4BKUGcmbE8r-35" target="4zWBS9Q-G4BKUGcmbE8r-54">
          <mxGeometry relative="1" as="geometry" />
        </mxCell>
        <mxCell id="4zWBS9Q-G4BKUGcmbE8r-58" style="edgeStyle=orthogonalEdgeStyle;rounded=0;orthogonalLoop=1;jettySize=auto;html=1;exitX=1;exitY=0.5;exitDx=0;exitDy=0;entryX=0;entryY=0.5;entryDx=0;entryDy=0;" edge="1" parent="1" source="4zWBS9Q-G4BKUGcmbE8r-54" target="4zWBS9Q-G4BKUGcmbE8r-37">
          <mxGeometry relative="1" as="geometry" />
        </mxCell>
        <mxCell id="4zWBS9Q-G4BKUGcmbE8r-59" value="Insert cash or check" style="swimlane;fontStyle=1;align=center;verticalAlign=middle;childLayout=stackLayout;horizontal=1;startSize=30;horizontalStack=0;resizeParent=0;resizeLast=1;container=0;fontColor=#000000;collapsible=0;rounded=1;arcSize=30;strokeColor=#ff0000;fillColor=#ffffc0;swimlaneFillColor=#ffffc0;dropTarget=0;" vertex="1" parent="1">
          <mxGeometry x="110" y="560" width="160" height="60" as="geometry" />
        </mxCell>
        <mxCell id="4zWBS9Q-G4BKUGcmbE8r-60" value="Do: Open cash/check reading tray" style="text;html=1;strokeColor=none;fillColor=none;align=center;verticalAlign=middle;spacingLeft=4;spacingRight=4;whiteSpace=wrap;overflow=hidden;rotatable=0;fontColor=#000000;" vertex="1" parent="4zWBS9Q-G4BKUGcmbE8r-59">
          <mxGeometry y="30" width="160" height="30" as="geometry" />
        </mxCell>
        <mxCell id="4zWBS9Q-G4BKUGcmbE8r-62" value="Withdraw amount" style="swimlane;fontStyle=1;align=center;verticalAlign=middle;childLayout=stackLayout;horizontal=1;startSize=30;horizontalStack=0;resizeParent=0;resizeLast=1;container=0;fontColor=#000000;collapsible=0;rounded=1;arcSize=30;strokeColor=#ff0000;fillColor=#ffffc0;swimlaneFillColor=#ffffc0;dropTarget=0;" vertex="1" parent="1">
          <mxGeometry x="400" y="560" width="160" height="60" as="geometry" />
        </mxCell>
        <mxCell id="4zWBS9Q-G4BKUGcmbE8r-63" value="Do: Display amounts" style="text;html=1;strokeColor=none;fillColor=none;align=center;verticalAlign=middle;spacingLeft=4;spacingRight=4;whiteSpace=wrap;overflow=hidden;rotatable=0;fontColor=#000000;" vertex="1" parent="4zWBS9Q-G4BKUGcmbE8r-62">
          <mxGeometry y="30" width="160" height="30" as="geometry" />
        </mxCell>
        <mxCell id="4zWBS9Q-G4BKUGcmbE8r-65" value="Deposit" style="edgeStyle=orthogonalEdgeStyle;rounded=0;orthogonalLoop=1;jettySize=auto;html=1;exitX=0.25;exitY=1;exitDx=0;exitDy=0;entryX=0.5;entryY=0;entryDx=0;entryDy=0;" edge="1" parent="1" source="4zWBS9Q-G4BKUGcmbE8r-43" target="4zWBS9Q-G4BKUGcmbE8r-59">
          <mxGeometry relative="1" as="geometry" />
        </mxCell>
        <mxCell id="4zWBS9Q-G4BKUGcmbE8r-66" value="Withdraw" style="edgeStyle=orthogonalEdgeStyle;rounded=0;orthogonalLoop=1;jettySize=auto;html=1;exitX=0.75;exitY=1;exitDx=0;exitDy=0;entryX=0.5;entryY=0;entryDx=0;entryDy=0;" edge="1" parent="1" source="4zWBS9Q-G4BKUGcmbE8r-43" target="4zWBS9Q-G4BKUGcmbE8r-62">
          <mxGeometry relative="1" as="geometry" />
        </mxCell>
        <mxCell id="4zWBS9Q-G4BKUGcmbE8r-71" value="Log Transaction" style="swimlane;fontStyle=1;align=center;verticalAlign=middle;childLayout=stackLayout;horizontal=1;startSize=30;horizontalStack=0;resizeParent=0;resizeLast=1;container=0;fontColor=#000000;collapsible=0;rounded=1;arcSize=30;strokeColor=#ff0000;fillColor=#ffffc0;swimlaneFillColor=#ffffc0;dropTarget=0;" vertex="1" parent="1">
          <mxGeometry x="650" y="440" width="160" height="60" as="geometry" />
        </mxCell>
        <mxCell id="4zWBS9Q-G4BKUGcmbE8r-72" value="Do: log transaction in company database" style="text;html=1;strokeColor=none;fillColor=none;align=center;verticalAlign=middle;spacingLeft=4;spacingRight=4;whiteSpace=wrap;overflow=hidden;rotatable=0;fontColor=#000000;" vertex="1" parent="4zWBS9Q-G4BKUGcmbE8r-71">
          <mxGeometry y="30" width="160" height="30" as="geometry" />
        </mxCell>
        <mxCell id="4zWBS9Q-G4BKUGcmbE8r-74" style="edgeStyle=orthogonalEdgeStyle;rounded=0;orthogonalLoop=1;jettySize=auto;html=1;exitX=0.5;exitY=1;exitDx=0;exitDy=0;entryX=0.25;entryY=1;entryDx=0;entryDy=0;" edge="1" parent="1" source="4zWBS9Q-G4BKUGcmbE8r-60" target="4zWBS9Q-G4BKUGcmbE8r-72">
          <mxGeometry relative="1" as="geometry" />
        </mxCell>
        <mxCell id="4zWBS9Q-G4BKUGcmbE8r-75" value="Custom Amount" style="swimlane;fontStyle=1;align=center;verticalAlign=middle;childLayout=stackLayout;horizontal=1;startSize=30;horizontalStack=0;resizeParent=0;resizeLast=1;container=0;fontColor=#000000;collapsible=0;rounded=1;arcSize=30;strokeColor=#ff0000;fillColor=#ffffc0;swimlaneFillColor=#ffffc0;dropTarget=0;" vertex="1" parent="1">
          <mxGeometry x="330" y="690" width="160" height="60" as="geometry" />
        </mxCell>
        <mxCell id="4zWBS9Q-G4BKUGcmbE8r-76" value="Do: Display custom amount input field" style="text;html=1;strokeColor=none;fillColor=none;align=center;verticalAlign=middle;spacingLeft=4;spacingRight=4;whiteSpace=wrap;overflow=hidden;rotatable=0;fontColor=#000000;" vertex="1" parent="4zWBS9Q-G4BKUGcmbE8r-75">
          <mxGeometry y="30" width="160" height="30" as="geometry" />
        </mxCell>
        <mxCell id="4zWBS9Q-G4BKUGcmbE8r-89" style="edgeStyle=orthogonalEdgeStyle;rounded=0;orthogonalLoop=1;jettySize=auto;html=1;exitX=0.75;exitY=0;exitDx=0;exitDy=0;entryX=0.5;entryY=1;entryDx=0;entryDy=0;" edge="1" parent="1" source="4zWBS9Q-G4BKUGcmbE8r-78" target="4zWBS9Q-G4BKUGcmbE8r-72">
          <mxGeometry relative="1" as="geometry" />
        </mxCell>
        <mxCell id="4zWBS9Q-G4BKUGcmbE8r-78" value="Dispence Cash" style="swimlane;fontStyle=1;align=center;verticalAlign=middle;childLayout=stackLayout;horizontal=1;startSize=30;horizontalStack=0;resizeParent=0;resizeLast=1;container=0;fontColor=#000000;collapsible=0;rounded=1;arcSize=30;strokeColor=#ff0000;fillColor=#ffffc0;swimlaneFillColor=#ffffc0;dropTarget=0;" vertex="1" parent="1">
          <mxGeometry x="580" y="690" width="160" height="60" as="geometry" />
        </mxCell>
        <mxCell id="4zWBS9Q-G4BKUGcmbE8r-79" value="Do: Dispense user specified amount" style="text;html=1;strokeColor=none;fillColor=none;align=center;verticalAlign=middle;spacingLeft=4;spacingRight=4;whiteSpace=wrap;overflow=hidden;rotatable=0;fontColor=#000000;" vertex="1" parent="4zWBS9Q-G4BKUGcmbE8r-78">
          <mxGeometry y="30" width="160" height="30" as="geometry" />
        </mxCell>
        <mxCell id="4zWBS9Q-G4BKUGcmbE8r-82" value="Predetermined amount" style="edgeStyle=orthogonalEdgeStyle;rounded=0;orthogonalLoop=1;jettySize=auto;html=1;exitX=1;exitY=0.25;exitDx=0;exitDy=0;entryX=0.25;entryY=0;entryDx=0;entryDy=0;" edge="1" parent="1" source="4zWBS9Q-G4BKUGcmbE8r-63" target="4zWBS9Q-G4BKUGcmbE8r-78">
          <mxGeometry relative="1" as="geometry" />
        </mxCell>
        <mxCell id="4zWBS9Q-G4BKUGcmbE8r-85" value="Custom amount" style="edgeStyle=orthogonalEdgeStyle;rounded=0;orthogonalLoop=1;jettySize=auto;html=1;exitX=0.25;exitY=1;exitDx=0;exitDy=0;entryX=0.688;entryY=0.033;entryDx=0;entryDy=0;entryPerimeter=0;" edge="1" parent="1" source="4zWBS9Q-G4BKUGcmbE8r-63" target="4zWBS9Q-G4BKUGcmbE8r-75">
          <mxGeometry relative="1" as="geometry" />
        </mxCell>
        <mxCell id="4zWBS9Q-G4BKUGcmbE8r-87" style="edgeStyle=orthogonalEdgeStyle;rounded=0;orthogonalLoop=1;jettySize=auto;html=1;exitX=1;exitY=0.25;exitDx=0;exitDy=0;entryX=0;entryY=0.25;entryDx=0;entryDy=0;" edge="1" parent="1" source="4zWBS9Q-G4BKUGcmbE8r-76" target="4zWBS9Q-G4BKUGcmbE8r-79">
          <mxGeometry relative="1" as="geometry" />
        </mxCell>
        <mxCell id="4zWBS9Q-G4BKUGcmbE8r-100" value="Yes" style="edgeStyle=orthogonalEdgeStyle;rounded=0;orthogonalLoop=1;jettySize=auto;html=1;exitX=0.5;exitY=0;exitDx=0;exitDy=0;entryX=1;entryY=0.5;entryDx=0;entryDy=0;" edge="1" parent="1" source="4zWBS9Q-G4BKUGcmbE8r-90" target="4zWBS9Q-G4BKUGcmbE8r-95">
          <mxGeometry relative="1" as="geometry" />
        </mxCell>
        <mxCell id="4zWBS9Q-G4BKUGcmbE8r-90" value="Print Question" style="swimlane;fontStyle=1;align=center;verticalAlign=middle;childLayout=stackLayout;horizontal=1;startSize=30;horizontalStack=0;resizeParent=0;resizeLast=1;container=0;fontColor=#000000;collapsible=0;rounded=1;arcSize=30;strokeColor=#ff0000;fillColor=#ffffc0;swimlaneFillColor=#ffffc0;dropTarget=0;" vertex="1" parent="1">
          <mxGeometry x="820" y="360" width="160" height="60" as="geometry" />
        </mxCell>
        <mxCell id="4zWBS9Q-G4BKUGcmbE8r-91" value="Do: User options for recipt" style="text;html=1;strokeColor=none;fillColor=none;align=center;verticalAlign=middle;spacingLeft=4;spacingRight=4;whiteSpace=wrap;overflow=hidden;rotatable=0;fontColor=#000000;" vertex="1" parent="4zWBS9Q-G4BKUGcmbE8r-90">
          <mxGeometry y="30" width="160" height="30" as="geometry" />
        </mxCell>
        <mxCell id="4zWBS9Q-G4BKUGcmbE8r-93" style="edgeStyle=orthogonalEdgeStyle;rounded=0;orthogonalLoop=1;jettySize=auto;html=1;exitX=1;exitY=0.25;exitDx=0;exitDy=0;entryX=0.55;entryY=1.067;entryDx=0;entryDy=0;entryPerimeter=0;" edge="1" parent="1" source="4zWBS9Q-G4BKUGcmbE8r-72" target="4zWBS9Q-G4BKUGcmbE8r-91">
          <mxGeometry relative="1" as="geometry" />
        </mxCell>
        <mxCell id="4zWBS9Q-G4BKUGcmbE8r-94" value="No" style="edgeStyle=orthogonalEdgeStyle;rounded=0;orthogonalLoop=1;jettySize=auto;html=1;exitX=0;exitY=0.25;exitDx=0;exitDy=0;entryX=0.456;entryY=0.967;entryDx=0;entryDy=0;entryPerimeter=0;" edge="1" parent="1" source="4zWBS9Q-G4BKUGcmbE8r-91" target="4zWBS9Q-G4BKUGcmbE8r-35">
          <mxGeometry relative="1" as="geometry" />
        </mxCell>
        <mxCell id="4zWBS9Q-G4BKUGcmbE8r-101" style="edgeStyle=orthogonalEdgeStyle;rounded=0;orthogonalLoop=1;jettySize=auto;html=1;exitX=0.25;exitY=0;exitDx=0;exitDy=0;entryX=0.875;entryY=1;entryDx=0;entryDy=0;entryPerimeter=0;" edge="1" parent="1" source="4zWBS9Q-G4BKUGcmbE8r-95" target="4zWBS9Q-G4BKUGcmbE8r-35">
          <mxGeometry relative="1" as="geometry" />
        </mxCell>
        <mxCell id="4zWBS9Q-G4BKUGcmbE8r-95" value="Recipe" style="swimlane;fontStyle=1;align=center;verticalAlign=middle;childLayout=stackLayout;horizontal=1;startSize=30;horizontalStack=0;resizeParent=0;resizeLast=1;container=0;fontColor=#000000;collapsible=0;rounded=1;arcSize=30;strokeColor=#ff0000;fillColor=#ffffc0;swimlaneFillColor=#ffffc0;dropTarget=0;" vertex="1" parent="1">
          <mxGeometry x="650" y="260" width="160" height="60" as="geometry" />
        </mxCell>
        <mxCell id="4zWBS9Q-G4BKUGcmbE8r-96" value="Do: Print receipt&amp;nbsp;" style="text;html=1;strokeColor=none;fillColor=none;align=center;verticalAlign=middle;spacingLeft=4;spacingRight=4;whiteSpace=wrap;overflow=hidden;rotatable=0;fontColor=#000000;" vertex="1" parent="4zWBS9Q-G4BKUGcmbE8r-95">
          <mxGeometry y="30" width="160" height="30" as="geometry" />
        </mxCell>
      </root>
    </mxGraphModel>
  </diagram>
</mxfile>
